<?xml version="1.0" standalone="no"?>
<!DOCTYPE svg PUBLIC "-//W3C//DTD SVG 20010904//EN"
 "http://www.w3.org/TR/2001/REC-SVG-20010904/DTD/svg10.dtd">
<svg version="1.0" xmlns="http://www.w3.org/2000/svg"
 width="144.000000pt" height="144.000000pt" viewBox="0 0 144.000000 144.000000"
 preserveAspectRatio="xMidYMid meet">
<metadata>
Created by potrace 1.11, written by Peter Selinger 2001-2013
</metadata>
<g transform="translate(0.000000,144.000000) scale(0.100000,-0.100000)"
fill="#000000" stroke="none">
<path d="M677 1374 c-1 -1 -24 -5 -52 -8 -92 -12 -208 -58 -285 -114 -120 -88
-231 -252 -254 -375 -3 -12 -5 -22 -6 -22 -5 0 -10 -62 -11 -140 -1 -173 65
-330 190 -455 42 -42 91 -84 109 -93 17 -9 44 -23 60 -31 25 -14 67 -31 84
-35 4 -1 22 -7 40 -12 90 -28 273 -29 338 -2 8 3 23 8 33 10 10 1 31 10 46 18
16 8 31 11 35 8 3 -4 6 -2 6 4 0 5 12 15 28 22 15 7 27 12 27 10 0 -3 38 28
60 48 8 7 16 13 19 13 12 0 77 73 122 136 25 35 74 139 74 158 0 7 3 16 7 20
4 3 8 14 10 24 22 120 22 219 -1 322 -14 60 -67 174 -106 225 -20 26 -119 125
-148 147 -34 27 -135 78 -174 87 -4 1 -22 7 -40 12 -50 15 -201 32 -211 23z"/>
</g>
</svg>
